<svg id="visual" viewBox="0 0 960 540" width="960" height="540" xmlns="http://www.w3.org/2000/svg" xmlns:xlink="http://www.w3.org/1999/xlink" version="1.1"><rect width="960" height="540" fill="#303638"></rect><g><g transform="translate(116 131)"><path d="M0 -70L41.1 -56.6L66.6 -21.6L66.6 21.6L41.1 56.6L0 70L-41.1 56.6L-66.6 21.6L-66.6 -21.6L-41.1 -56.6Z" fill="#43484b"></path></g><g transform="translate(827 311)"><path d="M0 -67L39.4 -54.2L63.7 -20.7L63.7 20.7L39.4 54.2L0 67L-39.4 54.2L-63.7 20.7L-63.7 -20.7L-39.4 -54.2Z" fill="#43484b"></path></g><g transform="translate(653 194)"><path d="M0 -55L32.3 -44.5L52.3 -17L52.3 17L32.3 44.5L0 55L-32.3 44.5L-52.3 17L-52.3 -17L-32.3 -44.5Z" fill="#43484b"></path></g><g transform="translate(474 130)"><path d="M0 -55L32.3 -44.5L52.3 -17L52.3 17L32.3 44.5L0 55L-32.3 44.5L-52.3 17L-52.3 -17L-32.3 -44.5Z" fill="#43484b"></path></g><g transform="translate(747 434)"><path d="M0 -57L33.5 -46.1L54.2 -17.6L54.2 17.6L33.5 46.1L0 57L-33.5 46.1L-54.2 17.6L-54.2 -17.6L-33.5 -46.1Z" fill="#43484b"></path></g><g transform="translate(84 391)"><path d="M0 -52L30.6 -42.1L49.5 -16.1L49.5 16.1L30.6 42.1L0 52L-30.6 42.1L-49.5 16.1L-49.5 -16.1L-30.6 -42.1Z" fill="#43484b"></path></g><g transform="translate(298 287)"><path d="M0 -60L35.3 -48.5L57.1 -18.5L57.1 18.5L35.3 48.5L0 60L-35.3 48.5L-57.1 18.5L-57.1 -18.5L-35.3 -48.5Z" fill="#43484b"></path></g></g></svg>